<svg xmlns="http://www.w3.org/2000/svg" viewBox="0 0 1144.98 125.25"><defs><style>.cls-1{fill:#7e5920;}.cls-2{fill:#ff8a36;}.cls-3,.cls-5{fill:#343e3d;}.cls-4{fill:#272d2d;}.cls-5{font-size:108.02px;font-family:OpenSans-Bold, Open Sans;font-weight:700;}</style></defs><title>CareTrainServices Logo</title><g id="Layer_2" data-name="Layer 2"><g id="Layer_1-2" data-name="Layer 1"><path class="cls-1" d="M84.24,106.05a18.16,18.16,0,0,1-11.9-12.51c-1.53-6.1-1.37-23.8.15-28.53.92-2.75,2.44-4.12,6.41-6.1C83.47,56.62,85.61,56.31,98,56c17.24-.46,26.86,1.07,31,4.88,4.42,4.12,4.27,5.8-.46,5.34-2.9-.15-5.65-1.53-9.61-4.58-6.87-5.19-8.39-4.58-10.68,4.27-1.37,5.8-2.14,6.87-6.87,10.38-7,5.34-10.38,12.82-8.54,18.92a20.65,20.65,0,0,0,5.49,8.09l4.12,3.81L95.22,107a38.71,38.71,0,0,1-11-.92Zm31-7.78A26.45,26.45,0,0,1,111.4,92c-1.22-2.9-1.07-3.51.15-4.88,3.36-3.36,19.84,2.75,19.84,7.48,0,1.37-1.37,2.75-4.58,4.27-6,3.05-8.54,2.9-11.6-.61Zm14.5-4.58c-.61-2-3.81-2.29-3.81-.31A1.79,1.79,0,0,0,128,94.91h0c1.22,0,1.83-.46,1.68-1.22Z"/><path class="cls-2" d="M89.42,51.43c-6.26-.61-8.7-1.37-11.6-3.51-6.41-4.88-7.17-7.48-7.17-24,0-14,.15-14.65,2.44-17.24,4.73-5,10.22-6.26,28.38-6.26C127,.62,132,3.36,132.76,18l.46,7.78L129.71,25c-7.93-1.53-13.28-4-15.72-6.87a11.48,11.48,0,0,1-2.59-4.58c0-.92-1.37-2.9-3.05-4.58-7.17-7.17-18.92-.15-13,7.93,2.44,3.2,1.83,5.65-2.59,9.77-3.66,3.36-4.12,4.27-3.51,6.71,1.53,6.26,4.88,7,12.66,2.9,5.49-2.9,7.48-2.9,20.29,1.22,9.61,3.05,10.38,3.51,8.85,6.26-3.2,5.8-23.19,9.31-41.66,7.63Z"/><path class="cls-3" d="M37.39,51.88c0-.61,1.37-1.68,3.36-2.29,4.88-2,9.92-6.87,10.68-10.22.92-4-1.07-7-7.17-11.14C39.07,24.57,33,16.48,33.73,14.2s4.43-1.83,8.54.61,7,2,8.7-1.22c2.59-4.88-1.53-9.16-9-9.16a15.25,15.25,0,0,0-11.9,6.26,6.82,6.82,0,0,1-5.49,3.05A44.41,44.41,0,0,0,5,19.84C2.6,21.52.62,22.44.31,21.67A37.11,37.11,0,0,1,.62,14.5C2,2.75,8.4-.15,31.44,0,54.18.16,62,3.36,63.79,13.28c1.07,5.8,0,28.38-1.37,31.13-.76,1.37-3.66,3.51-6.56,4.73-6.1,2.59-18.46,4.43-18.46,2.75ZM21.52,43c-4.43-3.2,2-11,9.16-11,2.9,0,3.2.31,2.75,2-.31,1.07,0,2,.61,2a1.26,1.26,0,0,0,1.07-1.53c0-2,1.37-2,3.05,0,3.2,3.81-3.51,9.77-10.83,9.77A8.77,8.77,0,0,1,21.52,43Z"/><path class="cls-4" d="M43,102.7c-.92-7.17-4.43-15.56-7.48-17.85-3.36-2.75-6.87-2.59-13.43.61-4.73,2.29-5.34,2.29-4.73.76,3.81-9.46-1.07-16.94-6.56-9.92C7.18,81,9,89,13.74,89c.76,0,.46,1.07-.92,2.9A61.71,61.71,0,0,0,8.55,98C7.33,99.8,5.81,101.32,5,101.32,2,101.32-.14,92.17,0,79.2,0,64.24,1.23,61.5,8.4,58c4.58-2.29,6.1-2.44,23.5-2.44,17.7,0,18.77.15,23.65,2.59,7.93,4,9.31,7.78,9.16,23.19-.31,16.17-1.37,19.84-7.48,22.89a37.56,37.56,0,0,1-8.85,2.9l-4.27.61-1.07-5Zm9.16-7.17c3.05-3.2,3.66-9.16,1.07-10.07s-6.1.46-7.93,3.66c-1.83,3.05-2.29,7.48-1.07,8.7,1.53,1.37,5.49.31,7.93-2.29ZM48.38,80.88c2.59-3.81,3.2-10.22,1.07-12.21-4-4-11.14,2-11.14,9.46,0,2.44.61,4.88,1.22,5.65,2.29,2.14,6.26.92,8.85-2.9ZM31.14,78.28A12.77,12.77,0,0,0,34,70.65c.46-4.58.31-5.19-2.14-6.87-2-1.37-3.05-1.37-4.73-.61C22.44,65.62,20.45,74,23.51,78.43c2.14,3.05,4.73,3.05,7.63-.15Z"/><text class="cls-5" transform="translate(149.28 93.61)">CareTrain Services</text></g></g></svg>